<?xml version="1.0" encoding="utf-8"?>
<!-- Generator: Adobe Illustrator 27.3.1, SVG Export Plug-In . SVG Version: 6.00 Build 0)  -->
<svg version="1.1" id="Layer_1" xmlns="http://www.w3.org/2000/svg" xmlns:xlink="http://www.w3.org/1999/xlink" x="0px" y="0px"
	 viewBox="0 0 120 120" style="enable-background:new 0 0 120 120;" xml:space="preserve">
<style type="text/css">
	.st0{fill:#A5A5A5;}
	.st1{fill:#231F20;}
	.st2{fill:#FFFFFF;stroke:#231F20;stroke-width:2;stroke-miterlimit:10;}
	.st3{fill:#1D191A;}
</style>
<polygon class="st0" points="58.76,60.83 41.05,78.54 11.27,80.07 33.02,60 58.76,60 "/>
<polygon class="st0" points="60.61,60.66 78.32,78.36 79.85,108.14 59.78,86.39 59.78,60.66 "/>
<g>
	<path class="st1" d="M41.35,15.51L58.3,34.28l1.48,1.64l1.48-1.64l16.94-18.77l-1.29,25.25l-0.11,2.21l2.21-0.11l25.25-1.29
		L85.5,58.52L83.86,60l1.64,1.48l18.77,16.94l-25.25-1.29l-2.21-0.11l0.11,2.21l1.29,25.25L61.26,85.72l-1.48-1.64l-1.48,1.64
		l-16.94,18.77l1.29-25.25l0.11-2.21l-2.21,0.11l-25.25,1.29l18.77-16.94L35.7,60l-1.64-1.48L15.29,41.57l25.25,1.29l2.21,0.11
		l-0.11-2.21L41.35,15.51 M80.49,10L59.78,32.94L39.07,10l1.58,30.87L9.78,39.29L32.72,60L9.78,80.71l30.87-1.58L39.07,110
		l20.71-22.94L80.49,110l-1.58-30.87l30.87,1.58L86.84,60l22.94-20.71l-30.87,1.58L80.49,10L80.49,10z"/>
</g>
<line class="st2" x1="59.78" y1="32.94" x2="59.78" y2="87.06"/>
<line class="st2" x1="40.65" y1="79.13" x2="78.91" y2="40.87"/>
<line class="st2" x1="32.72" y1="60" x2="86.84" y2="60"/>
<line class="st2" x1="40.65" y1="40.87" x2="78.91" y2="79.13"/>
</svg>
