<?xml version="1.0" encoding="utf-8"?>
<!-- Generator: Adobe Illustrator 27.3.1, SVG Export Plug-In . SVG Version: 6.00 Build 0)  -->
<svg version="1.1" id="Layer_1" xmlns="http://www.w3.org/2000/svg" xmlns:xlink="http://www.w3.org/1999/xlink" x="0px" y="0px"
	 viewBox="0 0 120 120" style="enable-background:new 0 0 120 120;" xml:space="preserve">
<style type="text/css">
	.st0{fill:#A5A5A5;}
	.st1{fill:#231F20;}
	.st2{fill:#FFFFFF;stroke:#231F20;stroke-width:2;stroke-miterlimit:10;}
	.st3{fill:#1D191A;}
</style>
<polygon class="st0" points="61.31,60.14 86.35,60.14 108.5,80.11 78.92,78.92 60.72,60.72 "/>
<polygon class="st0" points="59.88,58.95 59.88,33.91 79.85,11.76 78.66,41.34 60.46,59.54 "/>
<g>
	<path class="st1" d="M78.43,15.51l-1.29,25.25l-0.11,2.21l2.21-0.11l25.25-1.29L85.72,58.52L84.08,60l1.64,1.48l18.77,16.94
		l-25.25-1.29l-2.21-0.11l0.11,2.21l1.29,25.25L61.48,85.72L60,84.08l-1.48,1.64l-16.94,18.77l1.29-25.25l0.11-2.21l-2.21,0.11
		l-25.25,1.29l18.77-16.94L35.92,60l-1.64-1.48L15.51,41.57l25.25,1.29l2.21,0.11l-0.11-2.21l-1.29-25.25l16.94,18.77L60,35.92
		l1.48-1.64L78.43,15.51 M80.71,10L60,32.94L39.29,10l1.58,30.87L10,39.29L32.94,60L10,80.71l30.87-1.58L39.29,110L60,87.06
		L80.71,110l-1.58-30.87L110,80.71L87.06,60L110,39.29l-30.87,1.58L80.71,10L80.71,10z"/>
</g>
<line class="st2" x1="40.87" y1="79.13" x2="79.13" y2="40.87"/>
<line class="st2" x1="87.06" y1="60" x2="32.94" y2="60"/>
<line class="st2" x1="79.13" y1="79.13" x2="40.87" y2="40.87"/>
<line class="st2" x1="60" y1="87.06" x2="60" y2="32.94"/>
</svg>
