<?xml version="1.0" encoding="utf-8"?>
<!-- Generator: Adobe Illustrator 27.3.1, SVG Export Plug-In . SVG Version: 6.00 Build 0)  -->
<svg version="1.1" id="Layer_1" xmlns="http://www.w3.org/2000/svg" xmlns:xlink="http://www.w3.org/1999/xlink" x="0px" y="0px"
	 viewBox="0 0 120 120" style="enable-background:new 0 0 120 120;" xml:space="preserve">
<style type="text/css">
	.st0{fill:#A5A5A5;}
	.st1{fill:#231F20;}
	.st2{fill:#FFFFFF;stroke:#231F20;stroke-width:2;stroke-miterlimit:10;}
	.st3{fill:#1D191A;}
</style>
<polygon class="st0" points="59.17,58.66 41.46,40.95 39.93,11.17 60,32.92 60,58.66 "/>
<polygon class="st0" points="59.17,60.19 41.46,77.9 39.93,107.68 60,85.92 60,60.19 "/>
<g>
	<path class="st1" d="M41.58,15.05l16.94,18.77L60,35.46l1.48-1.64l16.94-18.77L77.14,40.3l-0.11,2.21l2.21-0.11l25.25-1.29
		L85.72,58.05l-1.64,1.48l1.64,1.48l18.77,16.94l-25.25-1.29l-2.21-0.11l0.11,2.21l1.29,25.25L61.49,85.26L60,83.61l-1.48,1.64
		l-16.94,18.77l1.29-25.25l0.11-2.21l-2.21,0.11l-25.25,1.29l18.77-16.94l1.64-1.48l-1.64-1.48L15.52,41.11l25.25,1.29l2.21,0.11
		l-0.11-2.21L41.58,15.05 M80.71,9.54L60,32.48L39.29,9.54l1.58,30.87L10,38.82l22.94,20.71L10,80.25l30.87-1.58l-1.58,30.87
		L60,86.6l20.71,22.94l-1.58-30.87L110,80.25L87.06,59.54L110,38.82L79.14,40.4L80.71,9.54L80.71,9.54z"/>
</g>
<line class="st2" x1="60" y1="32.48" x2="60" y2="86.6"/>
<line class="st2" x1="40.87" y1="78.67" x2="79.14" y2="40.4"/>
<line class="st2" x1="32.94" y1="59.54" x2="87.06" y2="59.54"/>
<line class="st2" x1="40.87" y1="40.4" x2="79.14" y2="78.67"/>
</svg>
