<?xml version="1.0" encoding="utf-8"?>
<!-- Generator: Adobe Illustrator 27.3.1, SVG Export Plug-In . SVG Version: 6.00 Build 0)  -->
<svg version="1.1" id="Layer_1" xmlns="http://www.w3.org/2000/svg" xmlns:xlink="http://www.w3.org/1999/xlink" x="0px" y="0px"
	 viewBox="0 0 120 120" style="enable-background:new 0 0 120 120;" xml:space="preserve">
<style type="text/css">
	.st0{fill:#A5A5A5;}
	.st1{fill:#231F20;}
	.st2{fill:#FFFFFF;stroke:#231F20;stroke-width:2;stroke-miterlimit:10;}
	.st3{fill:#1D191A;}
</style>
<polygon class="st0" points="59.17,59.78 41.46,42.07 39.93,12.29 60,34.04 60,59.78 "/>
<polygon class="st0" points="60.66,61.49 78.37,79.19 108.15,80.73 86.39,60.66 60.66,60.66 "/>
<g>
	<path class="st1" d="M78.43,16.17l-1.29,25.25l-0.11,2.21l2.21-0.11l25.25-1.29L85.72,59.17l-1.64,1.48l1.64,1.48l18.77,16.94
		l-25.25-1.29l-2.21-0.11l0.11,2.21l1.29,25.25L61.48,86.38L60,84.73l-1.48,1.64l-16.94,18.77l1.29-25.25l0.11-2.21l-2.21,0.11
		l-25.25,1.29l18.77-16.94l1.64-1.48l-1.64-1.48L15.51,42.23l25.25,1.29l2.21,0.11l-0.11-2.21l-1.29-25.25l16.94,18.77L60,36.58
		l1.48-1.64L78.43,16.17 M80.71,10.66L60,33.6L39.29,10.66l1.58,30.87L10,39.95l22.94,20.71L10,81.37l30.87-1.58l-1.58,30.87
		L60,87.72l20.71,22.94l-1.58-30.87L110,81.37L87.06,60.66L110,39.95l-30.87,1.58L80.71,10.66L80.71,10.66z"/>
</g>
<line class="st2" x1="60" y1="33.6" x2="60" y2="87.72"/>
<line class="st2" x1="40.87" y1="79.79" x2="79.13" y2="41.52"/>
<line class="st2" x1="32.94" y1="60.66" x2="87.06" y2="60.66"/>
<line class="st2" x1="40.87" y1="41.52" x2="79.13" y2="79.79"/>
</svg>
