<?xml version="1.0" encoding="utf-8"?>
<!-- Generator: Adobe Illustrator 27.3.1, SVG Export Plug-In . SVG Version: 6.00 Build 0)  -->
<svg version="1.1" id="Layer_1" xmlns="http://www.w3.org/2000/svg" xmlns:xlink="http://www.w3.org/1999/xlink" x="0px" y="0px"
	 viewBox="0 0 120 120" style="enable-background:new 0 0 120 120;" xml:space="preserve">
<style type="text/css">
	.st0{fill-rule:evenodd;clip-rule:evenodd;fill:#A5A5A5;}
	.st1{fill:#1D191A;}
	.st2{fill:none;stroke:#1D191A;stroke-width:2;stroke-miterlimit:10;}
</style>
<rect x="10.73" y="60.06" transform="matrix(-1 -1.224647e-16 1.224647e-16 -1 45.9701 144.9263)" class="st0" width="24.51" height="24.8"/>
<rect x="10.64" y="35.05" transform="matrix(-1 -1.224647e-16 1.224647e-16 -1 45.8006 94.8993)" class="st0" width="24.51" height="24.8"/>
<rect x="10.73" y="9.83" transform="matrix(-1 -1.224647e-16 1.224647e-16 -1 45.9701 44.455)" class="st0" width="24.51" height="24.8"/>
<g>
	<path class="st1" d="M108,11.78v96H12v-96H108 M110,9.78H10v100h100V9.78L110,9.78z"/>
</g>
<g>
	<line class="st2" x1="84.85" y1="109.12" x2="84.85" y2="10.39"/>
</g>
<g>
	<line class="st2" x1="35.24" y1="109.12" x2="35.24" y2="10.39"/>
</g>
<g>
	<line class="st2" x1="10.63" y1="84.58" x2="109.36" y2="84.58"/>
</g>
<g>
	<line class="st2" x1="84.85" y1="59.78" x2="109.36" y2="59.78"/>
</g>
<g>
	<line class="st2" x1="60" y1="84.87" x2="60" y2="109.38"/>
</g>
<g>
	<line class="st2" x1="60" y1="10.46" x2="60" y2="34.97"/>
</g>
<g>
	<line class="st2" x1="10.73" y1="59.78" x2="35.24" y2="59.78"/>
</g>
<g>
	<line class="st2" x1="10.63" y1="34.97" x2="109.36" y2="34.97"/>
</g>
</svg>
