<?xml version="1.0" encoding="utf-8"?>
<!-- Generator: Adobe Illustrator 27.3.1, SVG Export Plug-In . SVG Version: 6.00 Build 0)  -->
<svg version="1.1" id="Layer_1" xmlns="http://www.w3.org/2000/svg" xmlns:xlink="http://www.w3.org/1999/xlink" x="0px" y="0px"
	 viewBox="0 0 120 120" style="enable-background:new 0 0 120 120;" xml:space="preserve">
<style type="text/css">
	.st0{fill-rule:evenodd;clip-rule:evenodd;fill:#A5A5A5;}
	.st1{fill:#1D191A;}
	.st2{fill:none;stroke:#1D191A;stroke-width:2;stroke-miterlimit:10;}
</style>
<rect x="60" y="84.8" class="st0" width="24.51" height="24.64"/>
<rect x="84.83" y="59.97" class="st0" width="24.51" height="24.64"/>
<rect x="84.74" y="85.02" class="st0" width="24.51" height="24.64"/>
<g>
	<path class="st1" d="M108,12v96H12V12H108 M110,10H10v100h100V10L110,10z"/>
</g>
<g>
	<line class="st2" x1="35.15" y1="10.66" x2="35.15" y2="109.39"/>
</g>
<g>
	<line class="st2" x1="84.76" y1="10.66" x2="84.76" y2="109.39"/>
</g>
<g>
	<line class="st2" x1="109.37" y1="35.2" x2="10.64" y2="35.2"/>
</g>
<g>
	<line class="st2" x1="35.15" y1="60" x2="10.64" y2="60"/>
</g>
<g>
	<line class="st2" x1="60" y1="34.91" x2="60" y2="10.4"/>
</g>
<g>
	<line class="st2" x1="60" y1="109.32" x2="60" y2="84.8"/>
</g>
<g>
	<line class="st2" x1="109.27" y1="60" x2="84.76" y2="60"/>
</g>
<g>
	<line class="st2" x1="109.37" y1="84.8" x2="10.64" y2="84.8"/>
</g>
</svg>
